<svg width="10" height="2" viewBox="0 0 10 2" fill="none" xmlns="http://www.w3.org/2000/svg">
<path d="M9.75251 0.247525C9.91753 0.40154 10 0.59956 10 0.841585C10 1.08361 9.91753 1.28713 9.75251 1.45215C9.59849 1.60616 9.40047 1.68317 9.15845 1.68317C8.91642 1.68317 8.7129 1.60616 8.54789 1.45215C8.39387 1.28713 8.31686 1.08361 8.31686 0.841585C8.31686 0.59956 8.39387 0.40154 8.54789 0.247525C8.7129 0.0825078 8.91642 0 9.15845 0C9.40047 0 9.59849 0.0825078 9.75251 0.247525Z" fill="black"/>
<path d="M5.59405 0.247525C5.75907 0.40154 5.84158 0.59956 5.84158 0.841585C5.84158 1.08361 5.75907 1.28713 5.59405 1.45215C5.44004 1.60616 5.24202 1.68317 4.99999 1.68317C4.75797 1.68317 4.55445 1.60616 4.38943 1.45215C4.23541 1.28713 4.15841 1.08361 4.15841 0.841585C4.15841 0.59956 4.23541 0.40154 4.38943 0.247525C4.55445 0.0825078 4.75797 0 4.99999 0C5.24202 0 5.44004 0.0825078 5.59405 0.247525Z" fill="black"/>
<path d="M1.43565 0.247525C1.60066 0.40154 1.68317 0.59956 1.68317 0.841585C1.68317 1.08361 1.60066 1.28713 1.43565 1.45215C1.28163 1.60616 1.08361 1.68317 0.841586 1.68317C0.599561 1.68317 0.39604 1.60616 0.231024 1.45215C0.0770079 1.28713 0 1.08361 0 0.841585C0 0.59956 0.0770079 0.40154 0.231024 0.247525C0.39604 0.0825078 0.599561 0 0.841586 0C1.08361 0 1.28163 0.0825078 1.43565 0.247525Z" fill="black"/>
</svg>
