<svg width="11" height="2" viewBox="0 0 11 2" fill="none" xmlns="http://www.w3.org/2000/svg">
<path d="M10.7275 0.27227C10.909 0.441683 10.9998 0.6595 10.9998 0.92572C10.9998 1.19194 10.909 1.41581 10.7275 1.59732C10.5581 1.76674 10.3403 1.85144 10.074 1.85144C9.80782 1.85144 9.58396 1.76674 9.40244 1.59732C9.23303 1.41581 9.14832 1.19194 9.14832 0.92572C9.14832 0.6595 9.23303 0.441683 9.40244 0.27227C9.58396 0.0907563 9.80782 0 10.074 0C10.3403 0 10.5581 0.0907563 10.7275 0.27227Z" fill="black"/>
<path d="M6.15331 0.27227C6.33482 0.441683 6.42558 0.6595 6.42558 0.92572C6.42558 1.19194 6.33482 1.41581 6.15331 1.59732C5.98389 1.76674 5.76608 1.85144 5.49986 1.85144C5.23363 1.85144 5.00977 1.76674 4.82825 1.59732C4.65884 1.41581 4.57413 1.19194 4.57413 0.92572C4.57413 0.6595 4.65884 0.441683 4.82825 0.27227C5.00977 0.0907563 5.23363 0 5.49986 0C5.76608 0 5.98389 0.0907563 6.15331 0.27227Z" fill="black"/>
<path d="M1.57917 0.27227C1.76069 0.441683 1.85144 0.6595 1.85144 0.92572C1.85144 1.19194 1.76069 1.41581 1.57917 1.59732C1.40976 1.76674 1.19194 1.85144 0.925722 1.85144C0.659501 1.85144 0.435634 1.76674 0.25412 1.59732C0.0847066 1.41581 0 1.19194 0 0.92572C0 0.6595 0.0847066 0.441683 0.25412 0.27227C0.435634 0.0907563 0.659501 0 0.925722 0C1.19194 0 1.40976 0.0907563 1.57917 0.27227Z" fill="black"/>
</svg>
